<?xml version="1.0" encoding="utf-8"?>
<!-- Generator: Adobe Illustrator 25.3.1, SVG Export Plug-In . SVG Version: 6.00 Build 0)  -->
<svg version="1.1" id="Layer_1" xmlns="http://www.w3.org/2000/svg" xmlns:xlink="http://www.w3.org/1999/xlink" x="0px" y="0px"
	 viewBox="0 0 360 360" style="enable-background:new 0 0 360 360;" xml:space="preserve">
<style type="text/css">
	.st0{fill:#328CEB;}
	.st1{fill:#FFFFFF;}
</style>
<circle class="st0" cx="180" cy="180" r="172.4"/>
<g>
	<path class="st1" d="M266.5,128.7h-4.2c10.6-11.9,9.6-30.1-2.2-40.7c-11.9-10.6-30.1-9.6-40.7,2.2c-9.8,11-9.8,27.6,0,38.5H180v-32
		c0-1.8-1.4-3.2-3.2-3.2H164c-1.8,0-3.2,1.4-3.2,3.2v32h-3.2V83.9c0-1.8-1.4-3.2-3.2-3.2h-12.8c-1.8,0-3.2,1.4-3.2,3.2v44.9h-3.2
		v-22.4c0-1.8-1.4-3.2-3.2-3.2h-12.8c-1.8,0-3.2,1.4-3.2,3.2v22.4H93.5c-7.1,0-12.8,5.7-12.8,12.8v96.1c0,7.1,5.7,12.8,12.8,12.8
		h66.1l-4.3,12.8h-10.5c-1.8,0-3.2,1.4-3.2,3.2v6.4h-32c-1.8,0-3.2,1.4-3.2,3.2s1.4,3.2,3.2,3.2h141c1.8,0,3.2-1.4,3.2-3.2
		s-1.4-3.2-3.2-3.2h-32v-6.4c0-1.8-1.4-3.2-3.2-3.2h-10.5l-4.3-12.8h66.1c7.1,0,12.8-5.7,12.8-12.8v-96.1
		C279.3,134.5,273.6,128.7,266.5,128.7z M244.1,87.3c9.8,1.4,17.6,9.2,19,19h-19V87.3z M242.2,112.7h20.9
		c-1.8,12.3-13.1,20.8-25.4,19c-3.7-0.5-7.2-2-10.2-4.2L242.2,112.7z M218.5,109.5c0-11.1,8.2-20.6,19.2-22.2v20.9L222.9,123
		C220,119.1,218.5,114.3,218.5,109.5z M167.2,99.9h6.4v60.9h-6.4V99.9z M157.6,135.1h3.2v25.6h-3.2V135.1z M144.7,87.1h6.4v73.7
		h-6.4V87.1z M135.1,135.1h3.2v25.6h-3.2V135.1z M122.3,109.5h6.4v51.3h-6.4C122.3,160.8,122.3,109.5,122.3,109.5z M212,269.7v3.2
		h-64v-3.2H212z M162,263.3l4.3-12.8h27.4l4.3,12.8H162z M272.9,237.7c0,3.5-2.9,6.4-6.4,6.4h-173c-3.5,0-6.4-2.9-6.4-6.4v-6.4H273
		v6.4H272.9z M272.9,224.9H87.1v-83.3c0-3.5,2.9-6.4,6.4-6.4h22.4v25.6h-3.2v-19.2c0-1.8-1.4-3.2-3.2-3.2H96.7
		c-1.8,0-3.2,1.4-3.2,3.2V164c0,1.8,1.4,3.2,3.2,3.2h102.6c1.8,0,3.2-1.4,3.2-3.2v-22.4c0-1.8-1.4-3.2-3.2-3.2h-12.8
		c-1.8,0-3.2,1.4-3.2,3.2v19.2H180v-25.6h47.7c8.3,4.3,18.1,4.3,26.4,0h12.5c3.5,0,6.4,2.9,6.4,6.4L272.9,224.9L272.9,224.9z
		 M106.3,144.8v16h-6.4v-16H106.3z M189.6,160.8v-16h6.4v16H189.6z"/>
	<path class="st1" d="M115.9,234.5H96.7c-1.8,0-3.2,1.4-3.2,3.2s1.4,3.2,3.2,3.2h19.2c1.8,0,3.2-1.4,3.2-3.2
		C119.1,235.9,117.7,234.5,115.9,234.5z"/>
	<path class="st1" d="M128.7,234.5h-3.2c-1.8,0-3.2,1.4-3.2,3.2s1.4,3.2,3.2,3.2h3.2c1.8,0,3.2-1.4,3.2-3.2S130.5,234.5,128.7,234.5
		z"/>
	<path class="st1" d="M215.3,160.8c0.9,0,1.7-0.3,2.3-0.9l11.9-11.9H257c1.8,0,3.2-1.4,3.2-3.2s-1.4-3.2-3.2-3.2h-28.8
		c-0.8,0-1.7,0.3-2.3,0.9L213,155.3c-1.3,1.3-1.3,3.3,0,4.5C213.6,160.4,214.4,160.8,215.3,160.8z"/>
	<path class="st1" d="M256.9,196c-3.4,0-6.6,1.8-8.3,4.8L215,181.2c-1.1-5.2-6.2-8.5-11.4-7.5c-3.8,0.8-6.8,3.8-7.5,7.7l-33.8,25.3
		c-2.9-4.4-8.8-5.7-13.3-2.8c-1.4,0.9-2.6,2.2-3.3,3.7l-33.4-13.9c-1.2-5.2-6.4-8.3-11.6-7.1s-8.3,6.4-7.1,11.6
		c1.2,5.2,6.4,8.3,11.6,7.1c2.7-0.7,5-2.5,6.3-5l33.4,13.9c1.2,5.2,6.4,8.3,11.6,7.1c3.7-0.9,6.5-3.9,7.2-7.6l33.8-25.3
		c2.9,4.4,8.8,5.7,13.3,2.8c1.3-0.8,2.3-1.9,3.1-3.2l33.6,19.6c1.1,5.2,6.2,8.5,11.4,7.5c5.2-1.1,8.5-6.2,7.5-11.4
		C265.4,199.2,261.5,196,256.9,196z M106.3,196.1c0,1.8-1.4,3.2-3.2,3.2c-1.8,0-3.2-1.4-3.2-3.2s1.4-3.2,3.2-3.2
		C104.9,192.8,106.3,194.3,106.3,196.1L106.3,196.1z M154.4,215.3c-1.8,0-3.2-1.4-3.2-3.2l0,0c0-1.8,1.5-3.2,3.2-3.2
		c1.8,0,3.2,1.5,3.2,3.2C157.6,213.8,156.1,215.3,154.4,215.3z M205.6,186.4c-1.8,0-3.2-1.4-3.2-3.2s1.4-3.2,3.2-3.2
		s3.2,1.4,3.2,3.2S207.4,186.4,205.6,186.4z M256.9,208.9c-1.8,0-3.2-1.4-3.2-3.2s1.4-3.2,3.2-3.2c1.8,0,3.2,1.4,3.2,3.2
		C260.1,207.4,258.7,208.9,256.9,208.9z"/>
	<path class="st1" d="M231.3,215.3h-22.4c-1.8,0-3.2,1.4-3.2,3.2s1.4,3.2,3.2,3.2h22.4c1.8,0,3.2-1.4,3.2-3.2S233,215.3,231.3,215.3
		z"/>
	<path class="st1" d="M231.3,205.7h-9.6c-1.8,0-3.2,1.4-3.2,3.2s1.4,3.2,3.2,3.2h9.6c1.8,0,3.2-1.4,3.2-3.2S233,205.7,231.3,205.7z"
		/>
	<path class="st1" d="M96.7,176.8H132c1.8,0,3.2-1.4,3.2-3.2s-1.4-3.2-3.2-3.2H96.7c-1.8,0-3.2,1.4-3.2,3.2
		C93.5,175.4,94.9,176.8,96.7,176.8z"/>
	<path class="st1" d="M141.5,176.8h3.2c1.8,0,3.2-1.4,3.2-3.2s-1.4-3.2-3.2-3.2h-3.2c-1.8,0-3.2,1.4-3.2,3.2
		C138.3,175.4,139.8,176.8,141.5,176.8z"/>
</g>
</svg>
