<?xml version="1.0" encoding="utf-8"?>
<!-- Generator: Adobe Illustrator 26.0.1, SVG Export Plug-In . SVG Version: 6.00 Build 0)  -->
<svg version="1.1" id="Layer_1" xmlns="http://www.w3.org/2000/svg" xmlns:xlink="http://www.w3.org/1999/xlink" x="0px" y="0px"
	 viewBox="0 0 1601.36 677.26" style="enable-background:new 0 0 1601.36 677.26;" xml:space="preserve">
<style type="text/css">
	.st0{fill:#FFFFFF;}
	.st1{fill:#328CEB;}
	.st2{fill:none;}
	.st3{fill:url(#SVGID_1_);}
	.st4{fill:url(#SVGID_00000037653415083995745590000017647214140935911093_);}
	.st5{fill:url(#SVGID_00000147202984578768372100000001619163786693796529_);}
</style>
<g>
	<g>
		<polygon class="st0" points="715.7,272.82 677.28,364.02 640.25,272.82 600.17,272.82 656.44,406.77 696.52,406.77 753.04,272.82 
					"/>
		<g>
			<path class="st0" d="M883.01,303.94c-6.31-10.29-15.03-18.38-26.14-24.28c-11.12-5.89-23.74-8.84-37.85-8.84
				c-14.28,0-26.93,2.95-37.97,8.84c-11.04,5.89-19.76,14.03-26.14,24.4c-6.39,10.38-9.59,22.28-9.59,35.73
				c0,13.28,3.19,25.11,9.59,35.48c6.39,10.38,15.1,18.55,26.14,24.53c11.04,5.98,23.69,8.96,37.97,8.96
				c14.11,0,26.72-2.99,37.85-8.96c11.12-5.98,19.83-14.15,26.14-24.53c6.3-10.37,9.46-22.2,9.46-35.48
				C892.47,326.18,889.32,314.23,883.01,303.94z M848.65,359.59c-2.99,5.56-7.06,9.84-12.2,12.82c-5.15,2.99-10.96,4.48-17.43,4.48
				c-6.47,0-12.28-1.49-17.43-4.48c-5.15-2.99-9.26-7.26-12.32-12.82c-3.07-5.56-4.61-12.16-4.61-19.79c0-7.8,1.53-14.44,4.61-19.92
				c3.07-5.48,7.18-9.71,12.32-12.7c5.14-2.99,10.96-4.48,17.43-4.48c6.47,0,12.28,1.49,17.43,4.48c5.14,2.99,9.21,7.22,12.2,12.7
				c2.99,5.48,4.48,12.12,4.48,19.92C853.13,347.43,851.64,354.03,848.65,359.59z"/>
		</g>
		<path class="st0" d="M908.41,272.82v133.95h38.84v-63.24c0-12.78,3.28-22.2,9.83-28.26c6.55-6.06,15.15-9.09,25.77-9.09
			c1.49,0,2.9,0.04,4.23,0.12c1.33,0.09,2.82,0.21,4.48,0.37v-35.85c-12.62,0-23.32,2.45-32.12,7.35
			c-5.64,3.14-10.28,7.23-13.94,12.25v-17.6H908.41z"/>
		<g>
			<path class="st0" d="M1125.53,303.07c-6.14-10.37-14.48-18.34-25.02-23.9c-10.54-5.56-22.37-8.34-35.48-8.34
				c-13.61,0-25.81,2.95-36.6,8.84c-10.79,5.89-19.3,14.03-25.52,24.4c-6.23,10.38-9.34,22.28-9.34,35.73
				c0,13.28,3.15,25.11,9.46,35.48c6.31,10.38,15.23,18.55,26.77,24.53c11.53,5.98,24.94,8.96,40.21,8.96
				c12.11,0,22.82-1.87,32.12-5.6c9.29-3.73,17.01-9.09,23.16-16.06l-20.67-22.41c-4.48,4.32-9.42,7.55-14.82,9.71
				c-5.39,2.16-11.66,3.24-18.8,3.24c-7.97,0-14.9-1.45-20.79-4.36c-5.89-2.9-10.46-7.13-13.69-12.7c-1.76-3.02-3.02-6.3-3.82-9.83
				h101.3c0.16-1.66,0.33-3.44,0.5-5.35c0.16-1.91,0.25-3.61,0.25-5.11C1134.74,325.85,1131.67,313.44,1125.53,303.07z
				 M1032.2,328.09c0.65-4.17,1.87-7.95,3.69-11.33c2.82-5.23,6.76-9.29,11.83-12.2c5.06-2.9,10.91-4.36,17.55-4.36
				c6.64,0,12.45,1.46,17.43,4.36c4.98,2.91,8.88,6.93,11.7,12.07c1.87,3.41,3.11,7.24,3.74,11.45H1032.2z"/>
		</g>
		<g>
			<path class="st0" d="M1248.53,285.26c-11.29-9.62-27.14-14.44-47.56-14.44c-10.62,0-21.08,1.41-31.37,4.23
				c-10.3,2.82-19.09,6.81-26.39,11.95l13.94,27.14c4.81-3.82,10.66-6.85,17.55-9.09c6.89-2.24,13.9-3.36,21.04-3.36
				c10.46,0,18.22,2.33,23.28,6.97c5.06,4.65,7.59,11.12,7.59,19.42h-30.87c-13.61,0-24.65,1.7-33.11,5.1
				c-8.46,3.4-14.65,8.09-18.55,14.07c-3.9,5.98-5.85,12.95-5.85,20.91c0,7.64,1.99,14.53,5.98,20.67c3.98,6.14,9.71,11,17.18,14.57
				c7.47,3.57,16.43,5.35,26.89,5.35c11.78,0,21.41-2.24,28.88-6.72c5.06-3.04,9.02-7.05,11.95-11.99v16.72h36.35v-76.44
				C1265.46,309.91,1259.82,294.89,1248.53,285.26z M1226.62,364.44c-2.33,5.98-6.06,10.5-11.2,13.57
				c-5.15,3.07-10.96,4.6-17.43,4.6c-6.81,0-12.16-1.45-16.06-4.36c-3.9-2.9-5.85-6.85-5.85-11.83c0-4.48,1.7-8.22,5.11-11.2
				c3.4-2.99,9.67-4.48,18.8-4.48h26.64V364.44z"/>
		</g>
		<path class="st0" d="M1394.43,347.63c-2.99-4.73-6.85-8.46-11.58-11.2c-4.73-2.74-10-4.86-15.81-6.35
			c-5.81-1.49-11.58-2.61-17.3-3.36c-5.73-0.75-11-1.62-15.81-2.61c-4.82-1-8.68-2.32-11.58-3.98c-2.91-1.66-4.36-4.15-4.36-7.47
			c0-3.65,1.99-6.64,5.98-8.96c3.98-2.32,10.29-3.49,18.92-3.49c6.14,0,12.49,0.71,19.05,2.12c6.56,1.41,13.07,4.03,19.55,7.84
			l12.95-27.64c-6.31-3.82-14.19-6.72-23.65-8.71c-9.46-1.99-18.76-2.99-27.89-2.99c-12.95,0-24.07,1.87-33.36,5.6
			c-9.3,3.74-16.39,8.84-21.29,15.31c-4.9,6.47-7.34,13.94-7.34,22.41c0,7.64,1.45,13.86,4.36,18.67c2.9,4.82,6.76,8.63,11.58,11.45
			c4.81,2.82,10.12,4.94,15.93,6.35c5.81,1.41,11.58,2.53,17.3,3.36c5.73,0.83,11,1.66,15.81,2.49c4.81,0.83,8.67,2.03,11.58,3.61
			c2.9,1.58,4.36,3.94,4.36,7.1c0,3.82-1.87,6.81-5.6,8.96c-3.73,2.16-10.08,3.24-19.05,3.24c-8.14,0-16.39-1.2-24.78-3.61
			c-8.38-2.41-15.65-5.52-21.79-9.34l-12.95,27.89c6.14,4.15,14.48,7.59,25.02,10.33c10.54,2.74,21.54,4.11,32.99,4.11
			c13.45,0,24.86-1.83,34.24-5.48c9.38-3.65,16.56-8.67,21.54-15.07c4.98-6.39,7.47-13.73,7.47-22.03
			C1398.91,358.55,1397.42,352.37,1394.43,347.63z"/>
	</g>
	<g>
		<rect x="768.32" y="433.61" class="st1" width="6.28" height="65.67"/>
		<path class="st1" d="M818.81,456.84c-3.28-2.98-7.92-4.47-13.94-4.47c-3.66,0-7.14,0.55-10.44,1.64c-3.31,1.09-6.14,2.64-8.5,4.65
			l2.83,4.69c1.89-1.65,4.19-2.98,6.9-3.98c2.71-1,5.58-1.51,8.59-1.51c4.37,0,7.66,1.06,9.87,3.19c2.21,2.12,3.32,5.16,3.32,9.12
			v2.83h-14.78c-4.43,0-7.95,0.61-10.58,1.81c-2.63,1.21-4.51,2.8-5.66,4.78c-1.15,1.98-1.73,4.17-1.73,6.59
			c0,2.66,0.68,5,2.04,7.04c1.36,2.04,3.32,3.63,5.89,4.78c2.57,1.15,5.59,1.73,9.07,1.73c4.43,0,8.1-0.91,11.02-2.74
			c2.14-1.34,3.8-3.01,5-5.02v7.32h6.02v-28.85C823.72,464.35,822.09,459.82,818.81,456.84z M811.82,492.33
			c-2.57,1.62-5.62,2.43-9.16,2.43c-3.72,0-6.61-0.8-8.67-2.39c-2.07-1.59-3.1-3.72-3.1-6.37c0-2.36,0.87-4.34,2.61-5.93
			c1.74-1.59,4.85-2.39,9.34-2.39h14.6v7.61C816.26,488.36,814.39,490.71,811.82,492.33z"/>
		<path class="st1" d="M876.12,463.61c-2.01-3.54-4.77-6.3-8.28-8.28c-3.51-1.98-7.48-2.96-11.9-2.96c-4.01,0-7.64,0.92-10.89,2.74
			c-2.76,1.56-5.01,3.76-6.81,6.54v-28.04h-6.28v65.67h6.02v-9.3c1.81,2.96,4.12,5.31,6.99,6.95c3.24,1.86,6.9,2.79,10.97,2.79
			c4.43,0,8.39-1,11.9-3.01c3.51-2,6.27-4.79,8.28-8.36c2.01-3.57,3.01-7.68,3.01-12.35C879.13,471.28,878.13,467.15,876.12,463.61z
			 M870.54,485.51c-1.54,2.74-3.6,4.87-6.2,6.37c-2.6,1.51-5.55,2.26-8.85,2.26c-3.31,0-6.27-0.75-8.9-2.26
			c-2.63-1.5-4.69-3.63-6.2-6.37c-1.5-2.74-2.26-5.91-2.26-9.51c0-3.66,0.75-6.84,2.26-9.56c1.51-2.71,3.57-4.82,6.2-6.33
			c2.62-1.5,5.59-2.26,8.9-2.26c3.3,0,6.25,0.75,8.85,2.26c2.59,1.51,4.66,3.62,6.2,6.33c1.53,2.71,2.3,5.9,2.3,9.56
			C872.84,479.6,872.08,482.77,870.54,485.51z"/>
		<g>
			<g>
				<path class="st1" d="M928.03,463.7c-2.04-3.54-4.84-6.31-8.41-8.32c-3.57-2.01-7.66-3.01-12.26-3.01c-4.54,0-8.59,1-12.13,3.01
					c-3.54,2.01-6.34,4.78-8.41,8.32s-3.1,7.64-3.1,12.3c0,4.6,1.03,8.69,3.1,12.26c2.06,3.57,4.88,6.37,8.45,8.41
					c3.57,2.04,7.6,3.05,12.08,3.05c4.54,0,8.61-1.02,12.21-3.05c3.6-2.04,6.42-4.84,8.45-8.41c2.04-3.57,3.05-7.66,3.05-12.26
					C931.08,471.34,930.06,467.24,928.03,463.7z M922.45,485.51c-1.51,2.74-3.56,4.87-6.15,6.37c-2.6,1.51-5.58,2.26-8.94,2.26
					c-3.25,0-6.17-0.75-8.76-2.26c-2.6-1.5-4.66-3.63-6.19-6.37c-1.54-2.74-2.3-5.91-2.3-9.51c0-3.66,0.77-6.84,2.3-9.56
					c1.53-2.71,3.6-4.82,6.19-6.33c2.6-1.5,5.55-2.26,8.85-2.26c3.3,0,6.25,0.75,8.85,2.26c2.6,1.51,4.65,3.62,6.15,6.33
					c1.5,2.71,2.26,5.9,2.26,9.56C924.71,479.6,923.96,482.77,922.45,485.51z"/>
			</g>
		</g>
		<path class="st1" d="M952.32,455.16c-2.65,1.61-4.6,3.88-5.93,6.74v-9.08h-6.02v46.47h6.28v-23.72c0-5.49,1.39-9.72,4.16-12.7
			c2.77-2.98,6.61-4.47,11.51-4.47c0.23,0,0.47,0.01,0.71,0.04c0.23,0.03,0.47,0.04,0.71,0.04v-6.11
			C959.2,452.37,955.39,453.3,952.32,455.16z"/>
		<path class="st1" d="M1000.07,456.84c-3.27-2.98-7.92-4.47-13.94-4.47c-3.66,0-7.14,0.55-10.44,1.64c-3.3,1.09-6.14,2.64-8.5,4.65
			l2.83,4.69c1.89-1.65,4.19-2.98,6.91-3.98c2.71-1,5.58-1.51,8.58-1.51c4.37,0,7.66,1.06,9.87,3.19c2.21,2.12,3.32,5.16,3.32,9.12
			v2.83h-14.78c-4.43,0-7.95,0.61-10.58,1.81c-2.63,1.21-4.52,2.8-5.67,4.78c-1.15,1.98-1.73,4.17-1.73,6.59
			c0,2.66,0.68,5,2.04,7.04c1.36,2.04,3.32,3.63,5.89,4.78c2.57,1.15,5.59,1.73,9.07,1.73c4.43,0,8.1-0.91,11.02-2.74
			c2.14-1.34,3.8-3.01,5-5.02v7.32h6.02v-28.85C1004.98,464.35,1003.34,459.82,1000.07,456.84z M993.08,492.33
			c-2.57,1.62-5.62,2.43-9.16,2.43c-3.72,0-6.61-0.8-8.67-2.39c-2.07-1.59-3.1-3.72-3.1-6.37c0-2.36,0.87-4.34,2.61-5.93
			c1.74-1.59,4.85-2.39,9.34-2.39h14.6v7.61C997.52,488.36,995.64,490.71,993.08,492.33z"/>
		<path class="st1" d="M1039.06,491.93c-1.83,1.59-4.13,2.39-6.9,2.39c-2.6,0-4.59-0.74-5.97-2.21c-1.39-1.47-2.08-3.57-2.08-6.28
			v-27.79h14.16v-5.22h-14.16v-10.27h-6.29v10.27h-8.32v5.22h8.32v28.14c0,4.31,1.18,7.64,3.54,10c2.36,2.36,5.72,3.54,10.09,3.54
			c1.83,0,3.61-0.27,5.36-0.8c1.74-0.53,3.23-1.36,4.47-2.48L1039.06,491.93z"/>
		<g>
			<g>
				<path class="st1" d="M1087.07,463.7c-2.04-3.54-4.84-6.31-8.41-8.32c-3.57-2.01-7.66-3.01-12.26-3.01c-4.54,0-8.59,1-12.13,3.01
					c-3.54,2.01-6.34,4.78-8.41,8.32s-3.1,7.64-3.1,12.3c0,4.6,1.03,8.69,3.1,12.26c2.06,3.57,4.88,6.37,8.45,8.41
					c3.57,2.04,7.6,3.05,12.08,3.05c4.54,0,8.61-1.02,12.21-3.05c3.6-2.04,6.42-4.84,8.45-8.41c2.04-3.57,3.05-7.66,3.05-12.26
					C1090.12,471.34,1089.1,467.24,1087.07,463.7z M1081.49,485.51c-1.51,2.74-3.56,4.87-6.15,6.37c-2.6,1.51-5.58,2.26-8.94,2.26
					c-3.25,0-6.17-0.75-8.76-2.26c-2.6-1.5-4.66-3.63-6.19-6.37c-1.54-2.74-2.3-5.91-2.3-9.51c0-3.66,0.77-6.84,2.3-9.56
					c1.53-2.71,3.6-4.82,6.19-6.33c2.6-1.5,5.55-2.26,8.85-2.26s6.25,0.75,8.85,2.26c2.6,1.51,4.65,3.62,6.15,6.33
					c1.5,2.71,2.26,5.9,2.26,9.56C1083.75,479.6,1083,482.77,1081.49,485.51z"/>
			</g>
		</g>
		<path class="st1" d="M1109.59,455.16c-2.65,1.61-4.6,3.88-5.93,6.74v-9.08h-6.02v46.47h6.28v-23.72c0-5.49,1.39-9.72,4.16-12.7
			c2.77-2.98,6.61-4.47,11.51-4.47c0.23,0,0.47,0.01,0.71,0.04c0.23,0.03,0.47,0.04,0.71,0.04v-6.11
			C1116.47,452.37,1112.66,453.3,1109.59,455.16z"/>
		<g>
			<g>
				<path class="st1" d="M1135.35,434.84c-0.89-0.83-1.98-1.24-3.28-1.24c-1.3,0-2.39,0.43-3.28,1.28c-0.89,0.86-1.33,1.9-1.33,3.14
					c0,1.24,0.44,2.3,1.33,3.19c0.89,0.89,1.98,1.33,3.28,1.33c1.36,0,2.46-0.44,3.32-1.33c0.86-0.89,1.28-1.98,1.28-3.28
					C1136.68,436.7,1136.24,435.67,1135.35,434.84z"/>
				<rect x="1128.89" y="452.81" class="st1" width="6.28" height="46.47"/>
			</g>
		</g>
		<path class="st1" d="M1186.33,473.26h-2.58c0.05,0.61,0.1,1.22,0.1,1.86L1186.33,473.26z"/>
		<g>
			<g>
				<path class="st1" d="M1150.57,475.29c0-0.7,0.05-1.37,0.11-2.04h-1.44v4.69h1.42c-0.04-0.55-0.1-1.1-0.1-1.68V475.29z"/>
				<path class="st1" d="M1186.33,473.26h-2.58c0.05,0.61,0.1,1.22,0.1,1.86L1186.33,473.26z"/>
				<path class="st1" d="M1186.86,463.65c-1.95-3.57-4.62-6.34-8.01-8.32c-3.39-1.98-7.27-2.96-11.64-2.96
					c-4.31,0-8.19,1.02-11.64,3.05c-3.45,2.04-6.17,4.82-8.14,8.36s-2.97,7.61-2.97,12.21c0,4.6,1.03,8.69,3.1,12.26
					c2.06,3.57,4.93,6.37,8.59,8.41c3.66,2.04,7.91,3.05,12.75,3.05c3.72,0,7.12-0.65,10.22-1.95c3.1-1.3,5.68-3.19,7.75-5.66
					l-3.54-4.07c-1.77,2.07-3.88,3.6-6.33,4.6c-2.45,1-5.09,1.51-7.92,1.51c-3.6,0-6.8-0.75-9.6-2.26c-2.8-1.5-4.99-3.6-6.55-6.28
					c-1.31-2.25-2.04-4.81-2.25-7.66h-1.42v-4.69h1.44c0.23-2.6,0.89-4.97,2.02-7.08c1.42-2.66,3.39-4.72,5.93-6.2
					c2.54-1.47,5.4-2.21,8.59-2.21c3.24,0,6.11,0.74,8.59,2.21c2.48,1.48,4.44,3.53,5.89,6.15c1.17,2.13,1.84,4.51,2.06,7.12h2.58
					l-2.48,1.86c0-0.64-0.05-1.25-0.1-1.86h-33.07c-0.06,0.67-0.11,1.34-0.11,2.04v0.97c0,0.58,0.05,1.13,0.1,1.68h39.03
					c0-0.35,0.01-0.69,0.04-1.02c0.03-0.32,0.04-0.63,0.04-0.93C1189.78,471.34,1188.81,467.22,1186.86,463.65z"/>
			</g>
		</g>
		<path class="st1" d="M1150.57,475.29c0-0.7,0.05-1.37,0.11-2.04h-1.44v4.69h1.42c-0.04-0.55-0.1-1.1-0.1-1.68V475.29z"/>
		<path class="st1" d="M1224.78,476.66c-1.8-0.85-3.78-1.53-5.93-2.04c-2.15-0.5-4.31-0.93-6.46-1.28s-4.13-0.81-5.93-1.37
			c-1.8-0.56-3.24-1.34-4.34-2.35c-1.09-1-1.64-2.39-1.64-4.16c0-2.24,0.99-4.09,2.97-5.53c1.98-1.45,5.06-2.17,9.25-2.17
			c2.36,0,4.72,0.31,7.08,0.93c2.36,0.62,4.57,1.64,6.64,3.05l2.74-5.04c-1.95-1.3-4.43-2.35-7.43-3.14
			c-3.01-0.8-6.02-1.19-9.03-1.19c-3.95,0-7.3,0.58-10.05,1.73c-2.74,1.15-4.82,2.73-6.24,4.74c-1.42,2.01-2.13,4.28-2.13,6.81
			c0,2.66,0.55,4.78,1.64,6.37c1.09,1.59,2.52,2.85,4.29,3.76c1.77,0.92,3.73,1.61,5.89,2.08c2.15,0.47,4.32,0.89,6.51,1.24
			c2.18,0.35,4.16,0.78,5.93,1.28c1.77,0.5,3.2,1.24,4.29,2.21c1.09,0.97,1.64,2.32,1.64,4.03c0,2.3-0.97,4.15-2.92,5.53
			c-1.95,1.39-5.13,2.08-9.56,2.08c-3.25,0-6.34-0.52-9.29-1.55c-2.95-1.03-5.37-2.26-7.26-3.67l-2.83,4.96
			c1.95,1.65,4.63,3.02,8.06,4.12c3.42,1.09,7.05,1.64,10.89,1.64c4.07,0,7.54-0.54,10.4-1.64c2.86-1.09,5.05-2.62,6.55-4.6
			c1.51-1.98,2.26-4.32,2.26-7.04c0-2.54-0.55-4.59-1.64-6.15C1228.03,478.73,1226.58,477.52,1224.78,476.66z"/>
	</g>
</g>
<g>
	<linearGradient id="SVGID_1_" gradientUnits="userSpaceOnUse" x1="218.8396" y1="256.3369" x2="437.3696" y2="340.7993">
		<stop  offset="0.0218" style="stop-color:#1CE0FF"/>
		<stop  offset="0.286" style="stop-color:#27B6F5"/>
		<stop  offset="0.5306" style="stop-color:#328CEB"/>
		<stop  offset="0.9988" style="stop-color:#5528DC"/>
	</linearGradient>
	<path class="st3" d="M288.65,387.73c0.13,0.52,0.28,1.04,0.42,1.57c10.63,19.2,25.05,36.01,42.26,49.4
		c0.18,0.15,0.36,0.29,0.55,0.42c1.42,0.92,2.36,1.18,3.77,1.26c2.76,0.17,6.13-0.98,5.57-6.37l-0.41-3.41
		c-2.14-18-3.27-36.32-3.27-54.9c0-5.78,0.12-11.54,0.33-17.27c2.09-56.45,14.36-110.28,35.01-159.75c0.61-1.45,1.22-2.9,1.84-4.35
		c0.65-1.52,0.79-3.04,0.75-4.65c-0.19-9.62-8-17.76-17.76-17.76c-1.14,0-2.22,0.13-3.3,0.34c-0.85,0.16-1.71,0.42-2.51,0.7
		l-1.45,0.55c-21.15,9.84-40.22,17.83-56.11,25.89c-0.45,0.23-0.65,0.32-1.12,0.6c-3.05,1.78-4.67,3.18-5.65,6.13
		c-0.2,0.61-0.42,1.1-0.64,1.91c-3.89,16.03-6.11,30.14-7.87,46.9c-1.37,13-2.07,26.2-2.07,39.57c0,19.09,1.44,37.84,4.19,56.17
		C283.06,363.25,285.55,375.61,288.65,387.73z"/>
	
		<linearGradient id="SVGID_00000087404869901751842040000013276290578654592686_" gradientUnits="userSpaceOnUse" x1="217.1201" y1="260.7857" x2="435.6501" y2="345.2482">
		<stop  offset="0.0218" style="stop-color:#1CE0FF"/>
		<stop  offset="0.286" style="stop-color:#27B6F5"/>
		<stop  offset="0.5306" style="stop-color:#328CEB"/>
		<stop  offset="0.9988" style="stop-color:#5528DC"/>
	</linearGradient>
	<path style="fill:url(#SVGID_00000087404869901751842040000013276290578654592686_);" d="M204.73,240.47
		c8.97,33.54,20.53,68.62,39.4,89.95c5.64,5.51,9.39,7.58,22.65,13.08c0.26,0.11,0.46,0.16,0.55,0.07c0.09-0.09,0.1-0.2,0.03-0.44
		c-12.78-41.03-19.48-82.85-20.33-127.9c0-0.2,0-0.41-0.01-0.62c-0.19-4.8-4.14-8.64-8.99-8.64c-1.53,0-2.97,0.38-4.23,1.06
		c-0.31,0.19-0.61,0.38-0.92,0.57c-6.52,4.02-13.16,8.11-19.47,12c-0.92,0.57-1.82,1.13-2.73,1.68c-4.16,3.14-6.86,8.1-6.86,13.71
		c0,1.06,0.11,2.1,0.3,3.11C204.32,238.9,204.52,239.69,204.73,240.47z"/>
	
		<linearGradient id="SVGID_00000130648780452590320260000000122480722350910612_" gradientUnits="userSpaceOnUse" x1="226.3765" y1="236.8367" x2="444.9064" y2="321.2992">
		<stop  offset="0.0218" style="stop-color:#1CE0FF"/>
		<stop  offset="0.286" style="stop-color:#27B6F5"/>
		<stop  offset="0.5306" style="stop-color:#328CEB"/>
		<stop  offset="0.9988" style="stop-color:#5528DC"/>
	</linearGradient>
	<path style="fill:url(#SVGID_00000130648780452590320260000000122480722350910612_);" d="M594.54,152.94
		c-2.84-7.21-9.74-13.31-18.13-13.31h-92.62c-8.86,0-14.4,5.02-20.1,11.63c-0.44,0.53-0.88,1.06-1.32,1.59
		c-0.62,0.75-1.24,1.49-1.85,2.24c-46.71,57.33-78.14,123.97-92.89,199.37c-1.89,9.65-3.47,19.42-4.74,29.27
		c-2.46,19.05-3.79,38.45-3.84,58.16c0,0.46-0.02,0.91-0.02,1.36c0,4.32-0.17,7.31,0.52,15.92c2.99,24.27,16.89,51.9,33.79,72.39
		c0.86,1.38,1.91,2.62,3.13,3.69c2.86,2.5,6.6,4.03,10.7,4.03c8.24,0,15.03-6.13,16.12-14.07c0.03-0.22,0.06-0.44,0.09-0.67
		c2.35-17.48,5.41-34.74,9.2-51.72c0.01-0.05,0.03-0.1,0.04-0.15c16.6-74.38,42.9-146.67,83.79-208.17
		c12.23-18.39,25.41-36.09,39.49-53.01c9.12-10.96,16.7-19.59,26.55-29.89c0.36-0.38,1.01-1.06,1.73-1.8
		C595.11,167.68,597.39,161.52,594.54,152.94z"/>
</g>
</svg>
