<?xml version="1.0" encoding="utf-8"?>
<!-- Generator: Adobe Illustrator 25.3.1, SVG Export Plug-In . SVG Version: 6.00 Build 0)  -->
<svg version="1.1" id="Layer_1" xmlns="http://www.w3.org/2000/svg" xmlns:xlink="http://www.w3.org/1999/xlink" x="0px" y="0px"
	 viewBox="0 0 360 360" style="enable-background:new 0 0 360 360;" xml:space="preserve">
<style type="text/css">
	.st0{fill:#14E6FA;}
	.st1{fill:#5528DC;}
</style>
<circle class="st0" cx="180" cy="180" r="172.4"/>
<path class="st1" d="M265.5,70.7c-13.2,0-23.9,10.7-23.9,23.9c0,4.1,1,8,2.9,11.4l-39.1,39c-5.4-4.2-12.1-6.7-19.5-6.7
	s-14.1,2.5-19.5,6.7L136,114.5c1.4-2.4,2.3-5.1,2.3-8c0-8.8-7.1-15.9-15.9-15.9s-15.9,7.1-15.9,15.9s7.1,15.9,15.9,15.9
	c2.9,0,5.7-0.9,8-2.3l30.5,30.5c-4.2,5.4-6.7,12.1-6.7,19.5s2.5,14.1,6.7,19.5l-50.3,50.3c-4.2-3.8-9.8-6.2-16-6.2
	c-13.2,0-23.9,10.7-23.9,23.9c0,13.2,10.7,23.9,23.9,23.9s23.9-10.7,23.9-23.9c0-4.1-1-8-2.9-11.4l51-51c4.4,3.4,9.7,5.7,15.5,6.4
	V242c-11.3,1.9-19.9,11.7-19.9,23.5c0,13.2,10.7,23.9,23.9,23.9s23.9-10.7,23.9-23.9c0-11.8-8.6-21.6-19.9-23.5v-40.4
	c5.8-0.7,11.1-3,15.5-6.4l30.5,30.5c-1.4,2.4-2.3,5.1-2.3,8c0,8.8,7.1,15.9,15.9,15.9s15.9-7.1,15.9-15.9s-7.1-15.9-15.9-15.9
	c-2.9,0-5.7,0.9-8,2.3l-30.5-30.5c4.2-5.4,6.7-12.1,6.7-19.5s-2.5-14.1-6.7-19.5l38.4-38.4c4.2,3.8,9.8,6.2,16,6.2
	c13.2,0,23.9-10.7,23.9-23.9S278.6,70.7,265.5,70.7z M114.4,106.5c0-4.4,3.6-8,8-8s8,3.6,8,8s-3.6,8-8,8
	C118,114.4,114.4,110.8,114.4,106.5z M94.5,273.4c-8.8,0-15.9-7.1-15.9-15.9s7.1-15.9,15.9-15.9s15.9,7.1,15.9,15.9
	S103.3,273.4,94.5,273.4z M201.9,265.5c0,8.8-7.1,15.9-15.9,15.9c-8.8,0-15.9-7.1-15.9-15.9s7.1-15.9,15.9-15.9
	C194.7,249.6,201.9,256.7,201.9,265.5z M186,193.9c-13.2,0-23.9-10.7-23.9-23.9s10.7-23.9,23.9-23.9s23.9,10.7,23.9,23.9
	C209.8,183.2,199.1,193.9,186,193.9z M257.5,233.7c0,4.4-3.6,8-8,8s-8-3.6-8-8s3.6-8,8-8S257.5,229.3,257.5,233.7z M265.5,110.4
	c-8.8,0-15.9-7.1-15.9-15.9s7.1-15.9,15.9-15.9s15.9,7.1,15.9,15.9S274.2,110.4,265.5,110.4z"/>
</svg>
