<?xml version="1.0" encoding="utf-8"?>
<!-- Generator: Adobe Illustrator 25.3.1, SVG Export Plug-In . SVG Version: 6.00 Build 0)  -->
<svg version="1.1" id="Layer_1" xmlns="http://www.w3.org/2000/svg" xmlns:xlink="http://www.w3.org/1999/xlink" x="0px" y="0px"
	 viewBox="0 0 360 360" style="enable-background:new 0 0 360 360;" xml:space="preserve">
<style type="text/css">
	.st0{fill:#5528DC;}
	.st1{fill:#FFFFFF;}
</style>
<circle class="st0" cx="180" cy="180" r="172.4"/>
<g id="g2862" transform="matrix(1.3333333,0,0,-1.3333333,0,682.66667)">
	<g id="g2864">
		<g>
			<g id="g2866">
				<g id="g2872" transform="translate(504.5,35.333)">
					<g id="path2874_2_">
						<path class="st1" d="M-294.6,264.6h-62.3c-1.2,0-2.3,1-2.3,2.3v86.1c0,1.2,1,2.3,2.3,2.3h62.2c1.2,0,2.3-1,2.3-2.3v-86.1
							C-292.3,265.6-293.4,264.6-294.6,264.6z M-354.6,269.1h57.7v81.5h-57.7L-354.6,269.1L-354.6,269.1z"/>
					</g>
				</g>
				<g id="g2876" transform="translate(298.0244,201.8232)">
					<g id="path2878">
						<path class="st1" d="M-150.4,98.1h-87.5c-1.2,0-2.3,1-2.3,2.3v33.5c0,1.1,0.8,2,1.8,2.2l20.9,3.8v6.6c0,1,0.8,2,1.8,2.2
							l64.8,12.4c0.7,0.1,1.3-0.1,1.8-0.4c0.5-0.4,0.8-1,0.8-1.7v-58.5C-148.1,99.1-149.2,98.1-150.4,98.1z M-235.6,102.6h83v53.5
							l-60.2-11.6V138c0-1.1-0.8-2-1.8-2.2l-20.9-3.8L-235.6,102.6L-235.6,102.6z"/>
					</g>
				</g>
			</g>
		</g>
	</g>
	<g id="g2880" transform="translate(99.6226,336.6914)">
		<g id="path2882">
			<path class="st1" d="M-4.7,11.6c-1.2,0-2.2,0.9-2.3,2.1l-3.3,48.7h-1.5c-1.2,0-2.3,1-2.3,2.3c0,1.2,1,2.3,2.3,2.3h3.6
				c1.2,0,2.2-1,2.3-2.1l1.1-17.1L-2.5,14c0.1-1.2-0.9-2.4-2.1-2.4C-4.6,11.6-4.7,11.6-4.7,11.6z"/>
		</g>
	</g>
	<g id="g2884" transform="translate(40.3384,124.6631)">
		<g id="path2886">
			<path class="st1" d="M29.7,210.5c-0.1,0-0.1,0-0.2,0c-1.2,0.1-2.2,1.1-2.1,2.4l4.3,63.9c0.1,1.2,1,2.1,2.3,2.1h2.6
				c1.2,0,2.3-1,2.3-2.3c0-1.2-1-2.3-2.3-2.3h-0.5l-4.2-61.7C31.8,211.4,30.9,210.5,29.7,210.5z"/>
		</g>
	</g>
	<g id="g2888" transform="translate(178.1606,178.8291)">
		<g id="path2890">
			<path class="st1" d="M-66.7,172.6c-0.1,0-0.1,0-0.2,0c-1.2,0.1-2.2,1.1-2.1,2.4l3.8,57c0.1,1.2,1,2.1,2.3,2.1h17.2
				c1.2,0,2.2-1,2.3-2.1l2.8-41.4c0.1-1.2-0.9-2.4-2.1-2.4c-1.2-0.1-2.4,0.9-2.4,2.1l-2.6,39.3h-13l-3.7-54.9
				C-64.5,173.6-65.4,172.6-66.7,172.6z"/>
		</g>
	</g>
	<g id="g2892">
		<g>
			<g id="g2894">
				<g id="path2900">
					<path class="st1" d="M187.4,299.9h-17.2c-1.2,0-2.3,1-2.3,2.3v20.5c0,1.2,1,2.3,2.3,2.3h17.2c1.2,0,2.3-1,2.3-2.3v-20.5
						C189.6,301,188.6,299.9,187.4,299.9z M172.4,304.4H185v16h-12.6V304.4z"/>
				</g>
			</g>
		</g>
	</g>
	<g id="path2902">
		<path class="st1" d="M197.4,364.9H160c-1.2,0-2.3,1-2.3,2.3v8.5c0,1.2,1,2.3,2.3,2.3h37.4c1.2,0,2.3-1,2.3-2.3v-8.5
			C199.7,365.8,198.6,364.9,197.4,364.9z M162.4,369.3h32.8v4h-32.9L162.4,369.3L162.4,369.3z"/>
	</g>
	<g id="path2904">
		<path class="st1" d="M174.2,347.3h-14.1c-1.2,0-2.3,1-2.3,2.3v8.5c0,1.2,1,2.3,2.3,2.3h14.1c1.2,0,2.3-1,2.3-2.3v-8.5
			C176.5,348.4,175.4,347.3,174.2,347.3z M162.4,351.9h9.6v4h-9.6V351.9z"/>
	</g>
	<g id="path2906">
		<path class="st1" d="M197.4,347.3h-14.1c-1.2,0-2.3,1-2.3,2.3v8.5c0,1.2,1,2.3,2.3,2.3h14.1c1.2,0,2.3-1,2.3-2.3v-8.5
			C199.7,348.4,198.6,347.3,197.4,347.3z M185.6,351.9h9.6v4h-9.6V351.9z"/>
	</g>
	<g id="path2908">
		<path class="st1" d="M174.2,329.8h-14.1c-1.2,0-2.3,1-2.3,2.3v8.5c0,1.2,1,2.3,2.3,2.3h14.1c1.2,0,2.3-1,2.3-2.3v-8.5
			C176.5,330.9,175.4,329.8,174.2,329.8z M162.4,334.4h9.6v4h-9.6V334.4z"/>
	</g>
	<g id="path2910">
		<path class="st1" d="M197.4,329.8h-14.1c-1.2,0-2.3,1-2.3,2.3v8.5c0,1.2,1,2.3,2.3,2.3h14.1c1.2,0,2.3-1,2.3-2.3v-8.5
			C199.7,330.9,198.6,329.8,197.4,329.8z M185.6,334.4h9.6v4h-9.6V334.4z"/>
	</g>
	<g id="g2912">
		<g>
			<g id="g2914">
				<g id="g2920" transform="translate(504.5,293.2656)">
					<g id="path2922">
						<path class="st1" d="M-294.6,92.7h-22.5c-0.7,0-1.4,0.3-1.8,1c-0.4,0.6-0.5,1.3-0.3,2l5.1,16.3c0.3,1,1.1,1.6,2.2,1.6h17.4
							c1.2,0,2.3-1,2.3-2.3V94.9C-292.3,93.7-293.4,92.7-294.6,92.7z M-314.1,97.2h17.2V109h-13.4L-314.1,97.2z"/>
					</g>
				</g>
				<g id="g2924" transform="translate(309.4805,481.7227)">
					<g id="path2926">
						<path class="st1" d="M-185.5-62.9c-1.7,0-3.4,0.7-4.6,1.9s-1.9,2.9-1.9,4.6v4.3c0,0,0,0.1-0.1,0.1c-2.4,0-4.7,0.9-6.5,2.6
							c-1.7,1.7-2.8,3.9-2.8,6.4s0.9,4.8,2.6,6.5c1.7,1.7,4,2.6,6.5,2.6h4.9c0.4,1.4,1.2,2.6,2.3,3.7c1.7,1.7,4,2.6,6.5,2.6h13.5
							c5,0,9.1-4.1,9.1-9.1c0-2.4-1-4.7-2.7-6.5c-1.7-1.7-4-2.6-6.5-2.6h-4.9c-0.4-1.4-1.2-2.6-2.3-3.7c-1.7-1.7-4-2.6-6.5-2.6h-0.2
							c0,0-0.1,0-0.1-0.1v-4.3C-179-60-181.9-62.9-185.5-62.9z M-192.3-38.5c-1.2,0-2.4-0.4-3.2-1.3s-1.3-2-1.3-3.3
							c0-1.2,0.5-2.4,1.4-3.1c0.9-0.9,2.1-1.3,3.3-1.3c2.5,0,4.6-2.1,4.6-4.6v-4.3c0-0.5,0.2-1,0.6-1.4c0.3-0.3,0.9-0.6,1.4-0.6
							c1.1,0,2,0.9,2,2v4.3c0,2.5,2.1,4.6,4.6,4.6h0.2c1.2,0,2.4,0.4,3.2,1.3c0.8,0.8,1.2,1.8,1.3,2.9c0.1,1.2,1,2.1,2.3,2.1h6.8
							c1.2,0,2.4,0.4,3.2,1.3c0.9,0.9,1.3,2,1.3,3.2c0,2.5-2,4.5-4.5,4.5h-13.5c-1.2,0-2.4-0.4-3.2-1.3c-0.8-0.8-1.2-1.8-1.3-2.9
							c-0.1-1.2-1-2.1-2.3-2.1C-185.4-38.5-192.3-38.5-192.3-38.5z"/>
					</g>
				</g>
				<g id="g2928" transform="translate(128.1426,426.6191)">
					<g id="path2930">
						<path class="st1" d="M-45.3-18.1c-1.7,0-3.4,0.7-4.6,1.9s-1.9,2.9-1.9,4.6v4.3c0,0,0,0.1-0.1,0.1c-2.4,0-4.7,0.9-6.5,2.6
							C-59.6-3.3-60.6-1.7-61,0c-4,1.2-6.9,4.9-6.9,9.2c0,5.3,4.3,9.6,9.6,9.6c4.7,0,8.6-3.4,9.4-7.8h10.3c5,0,9.1-4.1,9.1-9.1
							c0-2.4-1-4.7-2.6-6.5c-1.7-1.7-4-2.6-6.5-2.6h-0.2c0,0-0.1,0-0.1-0.1v-4.3C-38.7-15.2-41.7-18.1-45.3-18.1z M-56.6,1.7
							c0-1.2,0.5-2.3,1.4-3.1c0.9-0.9,2.1-1.3,3.3-1.3c2.5,0,4.6-2.1,4.6-4.6v-4.2c0-0.5,0.2-1,0.6-1.4c0.3-0.3,0.9-0.6,1.4-0.6
							c1.1,0,2,0.9,2,2v4.3c0,2.5,2.1,4.6,4.6,4.6h0.2c1.2,0,2.4,0.4,3.2,1.3s1.3,2,1.3,3.2c0,2.5-2,4.5-4.5,4.5h-12.4
							c-0.6,0-1.2,0.3-1.7,0.7c-0.4,0.4-0.6,1-0.6,1.7c0,0.1,0,0.2,0,0.3c0,2.8-2.3,5.1-5.1,5.1s-5.1-2.3-5.1-5.1
							c0-2.6,2-4.8,4.6-5.1c1.1-0.1,2.1-1,2.1-2.3L-56.6,1.7L-56.6,1.7z"/>
					</g>
				</g>
				<g id="g2932" transform="translate(118.5415,233.2383)">
					<g id="path2934">
						<path class="st1" d="M-24.9,134.6h-21.4c-0.6,0-1.2,0.3-1.7,0.7c-0.4,0.4-0.6,1-0.6,1.7l1,14c0.1,1.2,1,2.1,2.3,2.1h19.4
							c1.2,0,2.2-1,2.3-2.1l1-14c0-0.6-0.2-1.2-0.6-1.7C-23.7,134.9-24.3,134.6-24.9,134.6z M-43.9,139.2h16.6l-0.6,9.5h-15.3
							L-43.9,139.2z"/>
					</g>
				</g>
				<g id="g2936" transform="translate(254.3945,271.1006)">
					<g id="path2938">
						<path class="st1" d="M-119.8,108.2h-21.1c-0.6,0-1.2,0.3-1.7,0.7s-0.6,1-0.6,1.7l0.9,13.3c0.1,1.2,1,2.1,2.3,2.1h19.3
							c1.2,0,2.2-1,2.3-2.1l0.9-13.3c0-0.6-0.2-1.2-0.6-1.7C-118.6,108.4-119.2,108.2-119.8,108.2z M-138.6,112.7h16.3l-0.6,8.8
							H-138L-138.6,112.7z"/>
					</g>
				</g>
				<g id="path2940">
					<path class="st1" d="M104.3,331.2h-7.8c-1.2,0-2.3,1-2.3,2.3v7.8c0,1.2,1,2.3,2.3,2.3h7.8c1.2,0,2.3-1,2.3-2.3v-7.8
						C106.6,332.3,105.5,331.2,104.3,331.2z M98.7,335.7h3.3v3.3h-3.3V335.7z"/>
				</g>
				<g id="path2942">
					<path class="st1" d="M120.4,331.2h-7.8c-1.2,0-2.3,1-2.3,2.3v7.8c0,1.2,1,2.3,2.3,2.3h7.8c1.2,0,2.3-1,2.3-2.3v-7.8
						C122.7,332.3,121.6,331.2,120.4,331.2z M114.8,335.7h3.3v3.3h-3.3V335.7z"/>
				</g>
				<g id="path2944">
					<path class="st1" d="M136.6,331.2h-7.8c-1.2,0-2.3,1-2.3,2.3v7.8c0,1.2,1,2.3,2.3,2.3h7.8c1.2,0,2.3-1,2.3-2.3v-7.8
						C138.8,332.3,137.8,331.2,136.6,331.2z M131,335.7h3.3v3.3H131V335.7z"/>
				</g>
				<g id="g2946" transform="translate(52.5,79)">
					<g id="path2948">
						<path class="st1" d="M84.1,242.4H21.2c-1.2,0-2.3,1-2.3,2.3s1,2.3,2.3,2.3h62.9c1.2,0,2.3-1,2.3-2.3
							C86.3,243.4,85.3,242.4,84.1,242.4z"/>
					</g>
				</g>
			</g>
		</g>
	</g>
</g>
</svg>
