<?xml version="1.0" encoding="utf-8"?>
<!-- Generator: Adobe Illustrator 25.3.1, SVG Export Plug-In . SVG Version: 6.00 Build 0)  -->
<svg version="1.1" id="Layer_1" xmlns="http://www.w3.org/2000/svg" xmlns:xlink="http://www.w3.org/1999/xlink" x="0px" y="0px"
	 viewBox="0 0 433.7 419.8" style="enable-background:new 0 0 433.7 419.8;" xml:space="preserve">
<style type="text/css">
	.st0{fill:url(#SVGID_1_);}
	.st1{fill:url(#SVGID_2_);}
	.st2{fill:url(#SVGID_3_);}
</style>
<g>
	
		<linearGradient id="SVGID_1_" gradientUnits="userSpaceOnUse" x1="35.9489" y1="312.2341" x2="254.4789" y2="227.7717" gradientTransform="matrix(1 0 0 -1 0 438.9968)">
		<stop  offset="2.180000e-02" style="stop-color:#1CE0FF"/>
		<stop  offset="0.286" style="stop-color:#27B6F5"/>
		<stop  offset="0.5306" style="stop-color:#328CEB"/>
		<stop  offset="0.9988" style="stop-color:#5528DC"/>
	</linearGradient>
	<path class="st0" d="M105.8,258.2c0.1,0.5,0.3,1,0.4,1.6c10.6,19.2,25,36,42.3,49.4c0.2,0.1,0.4,0.3,0.5,0.4
		c1.4,0.9,2.4,1.2,3.8,1.3c2.8,0.2,6.1-1,5.6-6.4l-0.4-3.4c-2.1-18-3.3-36.3-3.3-54.9c0-5.8,0.1-11.5,0.3-17.3
		c2.1-56.5,14.4-110.3,35-159.8c0.6-1.4,1.2-2.9,1.8-4.4c0.6-1.5,0.8-3,0.8-4.6c-0.2-9.6-8-17.8-17.8-17.8c-1.1,0-2.2,0.1-3.3,0.3
		c-0.9,0.2-1.7,0.4-2.5,0.7l-1.5,0.6c-21.1,9.8-40.2,17.8-56.1,25.9c-0.5,0.2-0.6,0.3-1.1,0.6c-3,1.8-4.7,3.2-5.6,6.1
		c-0.2,0.6-0.4,1.1-0.6,1.9c-3.9,16-6.1,30.1-7.9,46.9c-1.4,13-2.1,26.2-2.1,39.6c0,19.1,1.4,37.8,4.2,56.2
		C100.2,233.7,102.7,246,105.8,258.2z"/>
	
		<linearGradient id="SVGID_2_" gradientUnits="userSpaceOnUse" x1="34.2305" y1="307.7882" x2="252.7605" y2="223.3257" gradientTransform="matrix(1 0 0 -1 0 438.9968)">
		<stop  offset="2.180000e-02" style="stop-color:#1CE0FF"/>
		<stop  offset="0.286" style="stop-color:#27B6F5"/>
		<stop  offset="0.5306" style="stop-color:#328CEB"/>
		<stop  offset="0.9988" style="stop-color:#5528DC"/>
	</linearGradient>
	<path class="st1" d="M21.8,110.9c9,33.5,20.5,68.6,39.4,89.9c5.6,5.5,9.4,7.6,22.6,13.1c0.3,0.1,0.5,0.2,0.5,0.1s0.1-0.2,0-0.4
		c-12.8-41-19.5-82.9-20.3-127.9c0-0.2,0-0.4,0-0.6c-0.2-4.8-4.1-8.6-9-8.6c-1.5,0-3,0.4-4.2,1.1c-0.3,0.2-0.6,0.4-0.9,0.6
		c-6.5,4-13.2,8.1-19.5,12c-0.9,0.6-1.8,1.1-2.7,1.7c-4.2,3.1-6.9,8.1-6.9,13.7c0,1.1,0.1,2.1,0.3,3.1
		C21.4,109.3,21.6,110.1,21.8,110.9z"/>
	
		<linearGradient id="SVGID_3_" gradientUnits="userSpaceOnUse" x1="43.4835" y1="331.7284" x2="262.0134" y2="247.2659" gradientTransform="matrix(1 0 0 -1 0 438.9968)">
		<stop  offset="2.180000e-02" style="stop-color:#1CE0FF"/>
		<stop  offset="0.286" style="stop-color:#27B6F5"/>
		<stop  offset="0.5306" style="stop-color:#328CEB"/>
		<stop  offset="0.9988" style="stop-color:#5528DC"/>
	</linearGradient>
	<path class="st2" d="M411.6,23.4c-2.8-7.2-9.7-13.3-18.1-13.3h-92.6c-8.9,0-14.4,5-20.1,11.6c-0.4,0.5-0.9,1.1-1.3,1.6
		c-0.6,0.8-1.2,1.5-1.9,2.2c-46.7,57.3-78.1,124-92.9,199.4c-1.9,9.6-3.5,19.4-4.7,29.3c-2.5,19-3.8,38.5-3.8,58.2
		c0,0.5,0,0.9,0,1.4c0,4.3-0.2,7.3,0.5,15.9c3,24.3,16.9,51.9,33.8,72.4c0.9,1.4,1.9,2.6,3.1,3.7c2.9,2.5,6.6,4,10.7,4
		c8.2,0,15-6.1,16.1-14.1c0-0.2,0.1-0.4,0.1-0.7c2.4-17.5,5.4-34.7,9.2-51.7c0,0,0-0.1,0-0.1c16.6-74.4,42.9-146.7,83.8-208.2
		c12.2-18.4,25.4-36.1,39.5-53c9.1-11,16.7-19.6,26.5-29.9c0.4-0.4,1-1.1,1.7-1.8C412.2,38.1,414.5,32,411.6,23.4z"/>
</g>
</svg>
